# xmcd CD database file
#
# Track frame offsets:
#	150
#	17682
#	31547
#	49795
#	69392
#	87360
#	107667
#	127572
#	145705
#	161087
#	176175
#	193482
#	206145
#	222395
#
# Disc length: 3158 seconds
#
# Revision: 3
# Processed by: cddbd v1.5.2PL0 Copyright (c) Steve Scherf et al.
# Submitted via: CDex 1.51
#
DISCID=c40c540e
DTITLE=Luciano Bruno - Festival Di San Remo (Vecchi E Nuovi Successi)
DYEAR=1900
DGENRE=Romantic Italian
TTITLE0=In Amore
TTITLE1=Un Grande Amore E Niente Piu
TTITLE2=Ciao Amore Ciao
TTITLE3=La Forza Della Vita
TTITLE4=E Dimmi Che Non Vuoi Morire
TTITLE5=Strani Amori
TTITLE6=Si Puo Dare Di Più
TTITLE7=Innamorato
TTITLE8=L' Italiano
TTITLE9=Se Piangi Se Ridi
TTITLE10=Perdere L' Amore
TTITLE11=Non Pensare A Me
TTITLE12=Il Cuore E Uno Zingaro
TTITLE13=4/3/43 (Gesù Bambino)
EXTD=
EXTT0=
EXTT1=
EXTT2=
EXTT3=
EXTT4=
EXTT5=
EXTT6=
EXTT7=
EXTT8=
EXTT9=
EXTT10=
EXTT11=
EXTT12=
EXTT13=
PLAYORDER=
